<?xml version="1.0" standalone="no"?>
<!DOCTYPE svg PUBLIC "-//W3C//DTD SVG 20010904//EN"
 "http://www.w3.org/TR/2001/REC-SVG-20010904/DTD/svg10.dtd">
<svg version="1.0" xmlns="http://www.w3.org/2000/svg"
 width="40" height="40" viewBox="0 0 2400.000000 2400.000000"
 preserveAspectRatio="xMidYMid meet">

<g transform="translate(0.000000,2400.000000) scale(0.100000,-0.100000)"
fill="#000000" stroke="none">
<path d="M14320 20864 c-506 -28 -904 -76 -1320 -160 -1282 -259 -2344 -773
-3036 -1469 -202 -204 -382 -436 -642 -830 -69 -104 -147 -217 -172 -250 -407
-529 -716 -1279 -804 -1955 -60 -457 -41 -1040 50 -1595 129 -778 420 -1544
807 -2125 258 -387 546 -688 942 -986 210 -159 476 -318 800 -480 137 -69 251
-127 253 -129 4 -3 -280 -311 -486 -528 l-64 -67 -97 29 c-247 77 -405 101
-526 81 -221 -36 -340 -134 -321 -263 9 -60 64 -148 139 -226 67 -69 112 -93
228 -125 42 -12 77 -25 77 -31 0 -5 -113 -134 -252 -285 -2016 -2202 -3824
-4291 -4588 -5301 -119 -157 -133 -194 -132 -344 0 -100 4 -120 38 -220 73
-216 202 -411 411 -621 452 -454 1092 -745 1850 -840 198 -25 593 -25 725 0
250 47 395 134 489 294 109 185 786 1641 1283 2762 476 1072 1314 3022 1650
3837 l13 33 71 -58 c39 -31 92 -74 118 -96 53 -44 125 -66 222 -66 243 0 337
226 202 482 -36 67 -153 184 -275 273 -45 33 -82 63 -83 67 0 4 73 187 163
405 90 219 167 406 170 416 4 12 13 16 24 13 266 -81 759 -187 1118 -241 428
-65 759 -89 1205 -89 829 1 1474 120 2142 394 409 167 907 438 1271 692 1364
949 2336 2230 2666 3511 173 671 159 1340 -45 2044 -357 1236 -1320 2411
-2599 3170 -279 166 -658 355 -961 479 -511 209 -1083 333 -1779 384 -140 11
-823 21 -945 14z m985 -109 c865 -68 1451 -225 2130 -570 357 -181 627 -347
920 -567 927 -692 1570 -1557 1820 -2447 174 -622 144 -1288 -92 -2016 -467
-1443 -1703 -2834 -3183 -3584 -646 -327 -1232 -493 -1985 -563 -216 -20 -970
-17 -1205 5 -1326 125 -2561 523 -3460 1114 -331 219 -593 453 -817 733 -491
614 -783 1398 -889 2390 -21 201 -31 813 -15 962 85 790 429 1558 1130 2523
332 458 752 823 1319 1149 882 506 2044 819 3292 886 225 12 803 4 1035 -15z
m4668 -2786 c460 -741 696 -1509 697 -2264 0 -226 -11 -367 -45 -572 -112
-672 -411 -1357 -880 -2018 -785 -1106 -1993 -2050 -3215 -2513 -449 -170
-885 -263 -1465 -314 -190 -16 -854 -16 -1065 0 -465 37 -943 114 -1400 227
-289 71 -328 84 -332 109 -2 17 -81 58 -433 223 -236 111 -441 202 -455 202
-16 1 -39 -13 -67 -40 l-42 -42 -53 23 c-89 38 -397 193 -509 257 -365 208
-649 416 -902 662 -339 330 -566 645 -797 1106 -274 546 -458 1147 -545 1785
-35 263 -46 424 -50 765 -3 295 -2 321 5 165 18 -385 42 -634 86 -900 109
-663 341 -1284 658 -1760 328 -494 748 -875 1330 -1205 923 -523 2124 -866
3336 -955 364 -26 895 -20 1220 15 636 68 1171 217 1741 486 1319 620 2503
1782 3118 3062 298 619 451 1205 468 1797 9 311 -16 542 -88 837 -69 284 -205
623 -364 913 -61 111 -36 84 48 -51z m-8552 -7305 c35 -14 68 -29 72 -33 5 -6
-316 -518 -337 -537 0 -1 -45 18 -99 41 l-98 42 198 257 c109 141 198 256 199
256 0 0 29 -12 65 -26z m-1063 -385 c358 -87 862 -297 1186 -494 255 -155 511
-344 581 -429 81 -99 117 -250 79 -330 -32 -67 -61 -81 -167 -81 -55 1 -101 6
-115 14 -13 7 -80 59 -150 115 -289 234 -639 477 -819 569 -146 75 -329 127
-633 182 -158 28 -321 73 -360 99 -88 58 -178 198 -165 256 18 83 182 145 355
134 47 -3 141 -19 208 -35z m292 -619 c74 -18 169 -51 175 -60 3 -4 -135 -223
-307 -487 -171 -263 -912 -1400 -1646 -2528 -734 -1127 -1445 -2220 -1580
-2427 l-245 -376 -51 20 c-212 82 -346 159 -427 245 -54 56 -169 205 -169 218
0 4 280 370 623 813 703 910 2857 3700 3277 4244 186 242 280 356 290 353 8
-2 35 -9 60 -15z m-4280 -5672 c351 -304 543 -433 830 -556 301 -129 751 -279
1315 -437 110 -31 223 -63 252 -71 l52 -14 -81 -170 c-45 -94 -87 -170 -93
-170 -41 0 -829 279 -1135 402 -464 187 -678 301 -961 513 -318 238 -986 823
-974 852 2 8 46 63 97 123 l92 109 236 -232 c129 -128 296 -285 370 -349z
m-147 -547 c138 -102 247 -189 245 -197 -5 -23 -273 -383 -283 -380 -10 3
-483 448 -484 456 0 3 56 76 125 163 86 108 129 155 137 149 7 -4 124 -91 260
-191z"/>
</g>
</svg>
